<svg width="525" height="225" viewBox="0 0 525 225" fill="none" xmlns="http://www.w3.org/2000/svg">
<rect x="256" y="33" width="43" height="43" rx="3" fill="#98E2C6"/>
<rect x="355" y="86" width="37" height="50" rx="3" fill="#98E2C6"/>
<rect x="453" y="147" width="51" height="39" rx="3" fill="#98E2C6"/>
<rect x="125" y="31" width="146" height="85" rx="6" transform="rotate(90 125 31)" fill="#98E2C6"/>
<rect x="129" y="13" width="186" height="105" rx="4" transform="rotate(90 129 13)" stroke="#7BBFA5" stroke-width="4"/>
<rect x="118" y="26" width="146" height="83" rx="4" transform="rotate(90 118 26)" stroke="#7BBFA5" stroke-width="4"/>
<circle cx="83" cy="81" r="18" fill="#EFF2F2"/>
<path d="M232.414 51.4142C233.195 50.6332 233.195 49.3668 232.414 48.5858L219.686 35.8579C218.905 35.0768 217.639 35.0768 216.858 35.8579C216.077 36.6389 216.077 37.9052 216.858 38.6863L228.172 50L216.858 61.3137C216.077 62.0948 216.077 63.3611 216.858 64.1421C217.639 64.9232 218.905 64.9232 219.686 64.1421L232.414 51.4142ZM157 52H231V48H157V52Z" fill="#98E2C6"/>
<path d="M327.414 106.414C328.195 105.633 328.195 104.367 327.414 103.586L314.686 90.8579C313.905 90.0768 312.639 90.0768 311.858 90.8579C311.077 91.6389 311.077 92.9052 311.858 93.6863L323.172 105L311.858 116.314C311.077 117.095 311.077 118.361 311.858 119.142C312.639 119.923 313.905 119.923 314.686 119.142L327.414 106.414ZM157 107H326V103H157V107Z" fill="#98E2C6"/>
<path d="M423.414 161.414C424.195 160.633 424.195 159.367 423.414 158.586L410.686 145.858C409.905 145.077 408.639 145.077 407.858 145.858C407.077 146.639 407.077 147.905 407.858 148.686L419.172 160L407.858 171.314C407.077 172.095 407.077 173.361 407.858 174.142C408.639 174.923 409.905 174.923 410.686 174.142L423.414 161.414ZM157 162H422V158H157V162Z" fill="#98E2C6"/>
<rect x="252" y="29" width="39" height="39" rx="4" stroke="#7BBFA5" stroke-width="4"/>
<rect x="351" y="82" width="33" height="46" rx="4" stroke="#7BBFA5" stroke-width="4"/>
<rect x="449" y="143" width="47" height="35" rx="4" stroke="#7BBFA5" stroke-width="4"/>
<circle cx="265" cy="41" r="3" fill="#7BBFA5"/>
<circle cx="361" cy="96" r="3" fill="#7BBFA5"/>
<circle cx="461" cy="154" r="3" fill="#7BBFA5"/>
<circle cx="278" cy="41" r="3" fill="#7BBFA5"/>
<circle cx="374" cy="96" r="3" fill="#7BBFA5"/>
<circle cx="484" cy="154" r="3" fill="#7BBFA5"/>
<path d="M262 49V53C262 54.1046 262.895 55 264 55H279C280.105 55 281 54.1046 281 53V49" stroke="#7BBFA5" stroke-width="3"/>
<path d="M361 113V117C361 118.105 361.895 119 363 119H372C373.105 119 374 118.105 374 117V113" stroke="#7BBFA5" stroke-width="3"/>
<path d="M456 163V167C456 168.105 456.895 169 458 169H487C488.105 169 489 168.105 489 167V163" stroke="#7BBFA5" stroke-width="3"/>
</svg>
