<svg width="525" height="225" viewBox="0 0 525 225" fill="none" xmlns="http://www.w3.org/2000/svg">
<path d="M437 104V57C437 54.7909 438.791 53 441 53H460.843C461.904 53 462.921 53.4214 463.672 54.1716L476.828 67.3284C477.579 68.0786 478 69.096 478 70.1569V104C478 106.209 476.209 108 474 108H441C438.791 108 437 106.209 437 104Z" fill="#98E2C6"/>
<rect x="291" y="29" width="99" height="57" rx="6" transform="rotate(90 291 29)" fill="#98E2C6"/>
<rect x="192" y="49" width="88" height="151" rx="4" transform="rotate(90 192 49)" fill="#98E2C6" stroke="#98E2C6" stroke-width="4"/>
<rect x="200" y="13" width="132" height="178" rx="4" transform="rotate(90 200 13)" stroke="#7BBFA5" stroke-width="4"/>
<rect x="295" y="13" width="132" height="77" rx="4" transform="rotate(90 295 13)" stroke="#7BBFA5" stroke-width="4"/>
<circle cx="261" cy="61" r="18" fill="#EFF2F2"/>
<path d="M262 52C262 51.4477 261.552 51 261 51C260.448 51 260 51.4477 260 52L262 52ZM260.293 65.7071C260.683 66.0976 261.317 66.0976 261.707 65.7071L268.071 59.3432C268.462 58.9526 268.462 58.3195 268.071 57.9289C267.681 57.5384 267.047 57.5384 266.657 57.9289L261 63.5858L255.343 57.9289C254.953 57.5384 254.319 57.5384 253.929 57.9289C253.538 58.3195 253.538 58.9526 253.929 59.3432L260.293 65.7071ZM260 52L260 65L262 65L262 52L260 52Z" fill="#98E2C6"/>
<path d="M254 70H267" stroke="#98E2C6" stroke-width="2" stroke-linecap="round"/>
<rect x="284" y="24" width="98" height="55" rx="4" transform="rotate(90 284 24)" stroke="#7BBFA5" stroke-width="4"/>
<rect x="188" y="42" width="90" height="154" rx="4" transform="rotate(90 188 42)" stroke="#7BBFA5" stroke-width="4"/>
<line x1="31" y1="22" x2="76" y2="22" stroke="#7BBFA5" stroke-width="4" stroke-linecap="round"/>
<rect x="189" y="20" width="4" height="4" rx="2" fill="#7BBFA5"/>
<rect x="180" y="20" width="4" height="4" rx="2" fill="#7BBFA5"/>
<rect x="171" y="20" width="4" height="4" rx="2" fill="#7BBFA5"/>
<circle cx="113.5" cy="90.5" r="25.5" fill="#EFF2F2"/>
<path d="M115 74C115 73.4477 114.552 73 114 73C113.448 73 113 73.4477 113 74L115 74ZM113.293 94.7071C113.683 95.0976 114.317 95.0976 114.707 94.7071L121.071 88.3432C121.462 87.9526 121.462 87.3195 121.071 86.9289C120.681 86.5384 120.047 86.5384 119.657 86.9289L114 92.5858L108.343 86.9289C107.953 86.5384 107.319 86.5384 106.929 86.9289C106.538 87.3195 106.538 87.9526 106.929 88.3432L113.293 94.7071ZM113 74L113 94L115 94L115 74L113 74Z" fill="#98E2C6"/>
<path d="M104 101H124" stroke="#98E2C6" stroke-width="2" stroke-linecap="round"/>
<path d="M398.414 75.4142C399.195 74.6332 399.195 73.3668 398.414 72.5858L385.686 59.8579C384.905 59.0768 383.639 59.0768 382.858 59.8579C382.077 60.6389 382.077 61.9053 382.858 62.6863L394.172 74L382.858 85.3137C382.077 86.0948 382.077 87.3611 382.858 88.1421C383.639 88.9232 384.905 88.9232 385.686 88.1421L398.414 75.4142ZM319 76H397V72H319V76Z" fill="#98E2C6"/>
<path d="M432 98V51C432 48.7909 433.791 47 436 47H455.843C456.904 47 457.921 47.4214 458.672 48.1716L471.828 61.3284C472.579 62.0786 473 63.096 473 64.1569V98C473 100.209 471.209 102 469 102H436C433.791 102 432 100.209 432 98Z" stroke="#7BBFA5" stroke-width="4"/>
<line x1="425" y1="113" x2="441" y2="113" stroke="#7BBFA5" stroke-width="4" stroke-linecap="round"/>
<line x1="425" y1="124" x2="457" y2="124" stroke="#7BBFA5" stroke-width="4" stroke-linecap="round"/>
<line x1="466" y1="124" x2="470" y2="124" stroke="#7BBFA5" stroke-width="4" stroke-linecap="round"/>
<line x1="450" y1="113" x2="480" y2="113" stroke="#7BBFA5" stroke-width="4" stroke-linecap="round"/>
<path d="M447 88.5C447.333 82.1667 449.6 68.4 456 64M456 90.5C455.833 88 458.4 80.3 464 77.5" stroke="#EFF2F2" stroke-width="4" stroke-linecap="round"/>
</svg>
