<svg width="525" height="225" viewBox="0 0 525 225" fill="none" xmlns="http://www.w3.org/2000/svg">
<rect x="192" y="49" width="88" height="151" rx="4" transform="rotate(90 192 49)" fill="#98E2C6" stroke="#98E2C6" stroke-width="4"/>
<rect x="498" y="49" width="88" height="151" rx="4" transform="rotate(90 498 49)" fill="#98E2C6" stroke="#98E2C6" stroke-width="4"/>
<rect x="200" y="13" width="132" height="178" rx="4" transform="rotate(90 200 13)" stroke="#7BBFA5" stroke-width="4"/>
<rect x="506" y="13" width="132" height="178" rx="4" transform="rotate(90 506 13)" stroke="#7BBFA5" stroke-width="4"/>
<rect x="188" y="42" width="90" height="154" rx="4" transform="rotate(90 188 42)" stroke="#7BBFA5" stroke-width="4"/>
<rect x="494" y="42" width="90" height="154" rx="4" transform="rotate(90 494 42)" stroke="#7BBFA5" stroke-width="4"/>
<line x1="31" y1="22" x2="76" y2="22" stroke="#7BBFA5" stroke-width="4" stroke-linecap="round"/>
<line x1="337" y1="22" x2="382" y2="22" stroke="#7BBFA5" stroke-width="4" stroke-linecap="round"/>
<rect x="189" y="20" width="4" height="4" rx="2" fill="#7BBFA5"/>
<rect x="495" y="20" width="4" height="4" rx="2" fill="#7BBFA5"/>
<rect x="180" y="20" width="4" height="4" rx="2" fill="#7BBFA5"/>
<rect x="486" y="20" width="4" height="4" rx="2" fill="#7BBFA5"/>
<rect x="171" y="20" width="4" height="4" rx="2" fill="#7BBFA5"/>
<rect x="477" y="20" width="4" height="4" rx="2" fill="#7BBFA5"/>
<rect x="55" y="63" width="28" height="19" rx="3" stroke="#7BBFA5" stroke-width="2"/>
<rect x="103" y="92" width="28" height="19" rx="3" stroke="#7BBFA5" stroke-width="2"/>
<rect x="148" y="71" width="28" height="19" rx="3" stroke="#7BBFA5" stroke-width="2"/>
<path d="M406.5 106L421 100M406.5 106L423 116.5L435 106M406.5 106L395 91M421 100L432.5 87M421 100L408 89.5M421 100L435 106M432.5 87L443.5 76M432.5 87L419 76M432.5 87L445.5 94.5M443.5 76L429 71M443.5 76L457 82L445.5 94.5M395 91L408 89.5M395 91L377 88L390 87M408 89.5L419 76M408 89.5L390 87M419 76L429 71M419 76H403M429 71L416.5 62.5L403 76M390 87L403 76M435 106L445.5 94.5" stroke="#7BBFA5" stroke-width="2"/>
<path d="M83 72.5H94.0279C97.0014 72.5 98.9354 75.6293 97.6056 78.2889L88.8944 95.7111C87.5646 98.3707 89.4986 101.5 92.4721 101.5H102M131.5 101.5H137.319C140.453 101.5 142.37 98.0593 140.72 95.3946L135.28 86.6054C133.63 83.9407 135.547 80.5 138.681 80.5H147" stroke="#7BBFA5" stroke-width="2"/>
<path d="M211 102C217.075 102 222 97.0751 222 91C222 84.9249 217.075 80 211 80" stroke="#98E2C6" stroke-width="6"/>
<path d="M318 80C311.925 80 307 84.9249 307 91C307 97.0751 311.925 102 318 102" stroke="#98E2C6" stroke-width="6"/>
<path d="M211 113C223.15 113 233 103.15 233 91C233 78.8497 223.15 69 211 69" stroke="#98E2C6" stroke-width="6"/>
<path d="M318 69C305.85 69 296 78.8497 296 91C296 103.15 305.85 113 318 113" stroke="#98E2C6" stroke-width="6"/>
<path d="M211 124C229.225 124 244 109.225 244 91C244 72.7746 229.225 58 211 58" stroke="#98E2C6" stroke-width="6"/>
<path d="M318 58C299.775 58 285 72.7746 285 91C285 109.225 299.775 124 318 124" stroke="#98E2C6" stroke-width="6"/>
</svg>
