<?xml version="1.0" encoding="utf-8"?>
<!-- Generator: Adobe Illustrator 24.1.3, SVG Export Plug-In . SVG Version: 6.00 Build 0)  -->
<svg version="1.1" id="Layer_1" xmlns="http://www.w3.org/2000/svg" xmlns:xlink="http://www.w3.org/1999/xlink" x="0px" y="0px"
	 viewBox="0 0 250 250" style="enable-background:new 0 0 250 250;" xml:space="preserve">
<style type="text/css">
	.st0{fill-rule:evenodd;clip-rule:evenodd;fill:#093824;}
</style>
<path class="st0" d="M125.1,10.1C60,10.1,7.2,62.8,7.2,128c0,52.1,33.8,96.3,80.6,111.8c5.9,1.1,8-2.6,8-5.7c0-2.8-0.1-10.2-0.2-20
	C62.9,221.2,56,198.3,56,198.3C50.7,184.7,42.9,181,42.9,181c-10.7-7.3,0.8-7.2,0.8-7.2c11.8,0.8,18.1,12.1,18.1,12.1
	c10.5,18,27.6,12.8,34.3,9.8c1.1-7.6,4.1-12.8,7.5-15.8c-26.2-3-53.7-13.1-53.7-58.3c0-12.9,4.6-23.4,12.1-31.6
	c-1.2-3-5.3-15,1.2-31.2c0,0,9.9-3.2,32.4,12.1c9.4-2.6,19.5-3.9,29.5-4c10,0,20.1,1.4,29.5,4C177.1,55.8,187,59,187,59
	c6.4,16.2,2.4,28.2,1.2,31.2c7.6,8.2,12.1,18.8,12.1,31.6c0,45.3-27.6,55.2-53.8,58.2c4.2,3.6,8,10.8,8,21.8
	c0,15.8-0.1,28.5-0.1,32.3c0,3.2,2.1,6.8,8.1,5.7C209.2,224.2,243,180,243,128C243,62.8,190.2,10.1,125.1,10.1z"/>
</svg>
