<svg width="30" height="28" viewBox="0 0 30 28" fill="none" xmlns="http://www.w3.org/2000/svg">
<rect width="30" height="28" fill="#EFF2F2"/>
<rect x="14" y="2" width="17" height="12" rx="3" transform="rotate(90 14 2)" fill="#333333"/>
<rect x="28" y="2" width="16" height="12" rx="3" transform="rotate(90 28 2)" fill="#333333"/>
<rect x="7" y="9" width="17" height="5" rx="2.5" transform="rotate(90 7 9)" fill="#333333"/>
<rect x="21" y="9" width="17" height="5" rx="2.5" transform="rotate(90 21 9)" fill="#333333"/>
<rect x="14" y="9" width="17" height="5" rx="2.5" transform="rotate(90 14 9)" fill="#333333"/>
<rect x="7" y="8" width="2" height="18" fill="#EFF2F2"/>
<rect x="21" y="8" width="2" height="4" fill="#EFF2F2"/>
<circle cx="8" cy="8" r="1" fill="#EFF2F2"/>
<circle cx="22" cy="8" r="1" fill="#EFF2F2"/>
<circle cx="22" cy="12" r="1" fill="#EFF2F2"/>
<circle cx="25.5" cy="23.5" r="1.75" fill="#EFF2F2" stroke="#333333" stroke-width="1.5"/>
</svg>
